<mxfile host="65bd71144e">
    <diagram id="XEawbZiUNfezBBzTMNYf" name="Pagina-1">
        <mxGraphModel dx="306" dy="2563" grid="1" gridSize="10" guides="1" tooltips="1" connect="1" arrows="1" fold="1" page="1" pageScale="1" pageWidth="827" pageHeight="1169" math="0" shadow="0">
            <root>
                <mxCell id="0"/>
                <mxCell id="1" parent="0"/>
                <mxCell id="3" style="edgeStyle=orthogonalEdgeStyle;rounded=0;html=1;exitX=0.5;exitY=0;exitDx=0;exitDy=0;entryX=0;entryY=0.5;entryDx=0;entryDy=0;startArrow=none;startFill=0;endArrow=classic;endFill=1;fontSize=12;" parent="1" source="4" target="6" edge="1">
                    <mxGeometry relative="1" as="geometry"/>
                </mxCell>
                <mxCell id="32" style="edgeStyle=orthogonalEdgeStyle;rounded=0;html=1;exitX=1;exitY=0.5;exitDx=0;exitDy=0;entryX=0;entryY=0.825;entryDx=0;entryDy=0;entryPerimeter=0;" parent="1" source="4" target="26" edge="1">
                    <mxGeometry relative="1" as="geometry"/>
                </mxCell>
                <mxCell id="4" value="PC" style="rounded=0;whiteSpace=wrap;html=1;direction=south;fontSize=12;" parent="1" vertex="1">
                    <mxGeometry x="110" y="-2220" width="30" height="70" as="geometry"/>
                </mxCell>
                <mxCell id="5" style="edgeStyle=none;rounded=0;html=1;exitX=1;exitY=0.5;exitDx=0;exitDy=0;entryX=0.364;entryY=1;entryDx=0;entryDy=0;sourcePerimeterSpacing=-2;targetPerimeterSpacing=2;entryPerimeter=0;fontSize=12;" parent="1" source="6" target="17" edge="1">
                    <mxGeometry relative="1" as="geometry"/>
                </mxCell>
                <mxCell id="6" value="MI" style="whiteSpace=wrap;html=1;aspect=fixed;fontSize=12;" parent="1" vertex="1">
                    <mxGeometry x="180" y="-2210" width="50" height="50" as="geometry"/>
                </mxCell>
                <mxCell id="7" style="edgeStyle=orthogonalEdgeStyle;html=1;exitX=1;exitY=0.25;exitDx=0;exitDy=0;entryX=0;entryY=0.175;entryDx=0;entryDy=0;entryPerimeter=0;rounded=0;fontSize=12;" parent="1" source="10" target="19" edge="1">
                    <mxGeometry relative="1" as="geometry">
                        <mxPoint x="500" y="-2175" as="targetPoint"/>
                    </mxGeometry>
                </mxCell>
                <mxCell id="8" style="edgeStyle=orthogonalEdgeStyle;html=1;exitX=1;exitY=0.75;exitDx=0;exitDy=0;entryX=0.25;entryY=1;entryDx=0;entryDy=0;rounded=0;" parent="1" source="10" target="23" edge="1">
                    <mxGeometry relative="1" as="geometry">
                        <mxPoint x="500" y="-2109.75" as="targetPoint"/>
                    </mxGeometry>
                </mxCell>
                <mxCell id="9" style="edgeStyle=orthogonalEdgeStyle;rounded=0;html=1;exitX=0;exitY=0.75;exitDx=0;exitDy=0;entryX=0.616;entryY=-0.007;entryDx=0;entryDy=0;entryPerimeter=0;startArrow=classic;startFill=1;endArrow=none;endFill=0;" parent="1" source="10" target="17" edge="1">
                    <mxGeometry relative="1" as="geometry"/>
                </mxCell>
                <mxCell id="10" value="REG" style="whiteSpace=wrap;html=1;aspect=fixed;fontSize=12;" parent="1" vertex="1">
                    <mxGeometry x="390" y="-2210" width="70" height="70" as="geometry"/>
                </mxCell>
                <mxCell id="11" style="edgeStyle=orthogonalEdgeStyle;html=1;exitX=1;exitY=0.5;exitDx=0;exitDy=0;entryX=0.75;entryY=1;entryDx=0;entryDy=0;rounded=0;fontSize=12;" parent="1" source="12" target="23" edge="1">
                    <mxGeometry relative="1" as="geometry">
                        <mxPoint x="500" y="-2075.25" as="targetPoint"/>
                    </mxGeometry>
                </mxCell>
                <mxCell id="12" value="EXT" style="shape=manualInput;whiteSpace=wrap;html=1;size=13;verticalAlign=middle;labelPosition=center;verticalLabelPosition=middle;align=center;spacingBottom=-5;spacingTop=9;fontSize=12;" parent="1" vertex="1">
                    <mxGeometry x="380" y="-2105" width="70" height="40" as="geometry"/>
                </mxCell>
                <mxCell id="13" style="edgeStyle=none;rounded=0;html=1;exitX=0.297;exitY=0.004;exitDx=0;exitDy=0;entryX=0;entryY=0.25;entryDx=0;entryDy=0;sourcePerimeterSpacing=-2;targetPerimeterSpacing=2;exitPerimeter=0;fontSize=12;" parent="1" source="17" target="10" edge="1">
                    <mxGeometry relative="1" as="geometry"/>
                </mxCell>
                <mxCell id="14" style="edgeStyle=none;rounded=0;html=1;exitX=0.457;exitY=0.015;exitDx=0;exitDy=0;sourcePerimeterSpacing=-2;targetPerimeterSpacing=2;exitPerimeter=0;entryX=0;entryY=0.5;entryDx=0;entryDy=0;fontSize=12;" parent="1" source="17" target="10" edge="1">
                    <mxGeometry relative="1" as="geometry">
                        <mxPoint x="300" y="-2175" as="targetPoint"/>
                        <Array as="points"/>
                    </mxGeometry>
                </mxCell>
                <mxCell id="15" style="edgeStyle=orthogonalEdgeStyle;rounded=0;html=1;exitX=1;exitY=0.5;exitDx=0;exitDy=0;entryX=0;entryY=0.75;entryDx=0;entryDy=0;startArrow=none;startFill=0;endArrow=classic;endFill=1;" parent="1" source="17" target="12" edge="1">
                    <mxGeometry relative="1" as="geometry"/>
                </mxCell>
                <mxCell id="17" value="ISTR" style="rounded=0;whiteSpace=wrap;html=1;direction=south;fontSize=12;" parent="1" vertex="1">
                    <mxGeometry x="275" y="-2225" width="50" height="110" as="geometry"/>
                </mxCell>
                <mxCell id="18" style="edgeStyle=orthogonalEdgeStyle;rounded=0;html=1;exitX=1;exitY=0.5;exitDx=0;exitDy=0;exitPerimeter=0;startArrow=none;startFill=0;endArrow=classic;endFill=1;entryX=0;entryY=0.5;entryDx=0;entryDy=0;fontSize=12;" parent="1" source="19" target="21" edge="1">
                    <mxGeometry relative="1" as="geometry">
                        <mxPoint x="630" y="-2114.8" as="targetPoint"/>
                    </mxGeometry>
                </mxCell>
                <mxCell id="19" value="ALU" style="shape=stencil(rZTdDoIgGIavhtOmMKvTRnXUaRdAislUcEh/dx+CtvzBFbU5t+995eEFPgEI1xmpKIABJyUFaAsg3ByO+q2lm63DILB1NqhJXdFYWfFKJCOnglqnVlLk9MYS1Y5hPKOSqcZFOxBs9DfNg/CJxPlZigtPekZnV6QhjIzOLsW1yX63k7SxHr0KwP0MoGD8DfBaWYv4B2PtwegTXkR/xDLyWEjUQ0Q/h0AeIb44UoS1PuoXozqaDOFUSDrTfSkrCtvKM7M6WnQ6Tuc5qWaYIxbCseBc/3JM8HoSq31NJowr5xYuwtXsOXwGWUMPSDiAOBBmC8YrNbK9rYzwBA==);whiteSpace=wrap;html=1;fontSize=12;" parent="1" vertex="1">
                    <mxGeometry x="600" y="-2170" width="70" height="80" as="geometry"/>
                </mxCell>
                <mxCell id="20" style="edgeStyle=orthogonalEdgeStyle;rounded=0;html=1;exitX=1;exitY=0.5;exitDx=0;exitDy=0;entryX=0.5;entryY=0;entryDx=0;entryDy=0;fontSize=12;" parent="1" source="21" target="10" edge="1">
                    <mxGeometry relative="1" as="geometry">
                        <Array as="points">
                            <mxPoint x="790" y="-2130"/>
                            <mxPoint x="790" y="-2240"/>
                            <mxPoint x="425" y="-2240"/>
                        </Array>
                    </mxGeometry>
                </mxCell>
                <mxCell id="21" value="MD" style="whiteSpace=wrap;html=1;aspect=fixed;fontSize=12;" parent="1" vertex="1">
                    <mxGeometry x="710" y="-2158.5" width="57" height="57" as="geometry"/>
                </mxCell>
                <mxCell id="22" style="edgeStyle=orthogonalEdgeStyle;rounded=0;html=1;exitX=0.5;exitY=0;exitDx=0;exitDy=0;entryX=0;entryY=0.825;entryDx=0;entryDy=0;entryPerimeter=0;" parent="1" source="23" target="19" edge="1">
                    <mxGeometry relative="1" as="geometry"/>
                </mxCell>
                <mxCell id="23" value="" style="shape=trapezoid;perimeter=trapezoidPerimeter;whiteSpace=wrap;html=1;fixedSize=1;direction=south;" parent="1" vertex="1">
                    <mxGeometry x="510" y="-2143.5" width="30" height="78.5" as="geometry"/>
                </mxCell>
                <mxCell id="34" style="edgeStyle=orthogonalEdgeStyle;rounded=0;html=1;exitX=1;exitY=0.5;exitDx=0;exitDy=0;exitPerimeter=0;entryX=0;entryY=0.5;entryDx=0;entryDy=0;" parent="1" source="26" target="4" edge="1">
                    <mxGeometry relative="1" as="geometry">
                        <Array as="points">
                            <mxPoint x="165" y="-2040"/>
                            <mxPoint x="100" y="-2040"/>
                            <mxPoint x="100" y="-2240"/>
                            <mxPoint x="125" y="-2240"/>
                        </Array>
                    </mxGeometry>
                </mxCell>
                <mxCell id="26" value="ALU" style="shape=stencil(rZTdDoIgGIavhtOmMKvTRnXUaRdAislUcEh/dx+CtvzBFbU5t+995eEFPgEI1xmpKIABJyUFaAsg3ByO+q2lm63DILB1NqhJXdFYWfFKJCOnglqnVlLk9MYS1Y5hPKOSqcZFOxBs9DfNg/CJxPlZigtPekZnV6QhjIzOLsW1yX63k7SxHr0KwP0MoGD8DfBaWYv4B2PtwegTXkR/xDLyWEjUQ0Q/h0AeIb44UoS1PuoXozqaDOFUSDrTfSkrCtvKM7M6WnQ6Tuc5qWaYIxbCseBc/3JM8HoSq31NJowr5xYuwtXsOXwGWUMPSDiAOBBmC8YrNbK9rYzwBA==);whiteSpace=wrap;html=1;direction=south;" parent="1" vertex="1">
                    <mxGeometry x="140" y="-2090" width="50" height="40" as="geometry"/>
                </mxCell>
                <mxCell id="33" value="4" style="edgeStyle=none;orthogonalLoop=1;jettySize=auto;html=1;rounded=0;entryX=0;entryY=0.175;entryDx=0;entryDy=0;entryPerimeter=0;" parent="1" target="26" edge="1">
                    <mxGeometry x="-1" y="10" width="80" relative="1" as="geometry">
                        <mxPoint x="181" y="-2120" as="sourcePoint"/>
                        <mxPoint x="280" y="-2120" as="targetPoint"/>
                        <Array as="points"/>
                        <mxPoint x="-10" y="-10" as="offset"/>
                    </mxGeometry>
                </mxCell>
            </root>
        </mxGraphModel>
    </diagram>
</mxfile>